# xmcd
#
# Track frame offsets: 
#        150
#        9798
#        20207
#        34170
#        45542
#        58919
#        69087
#        78230
#        88971
#        100971
#        112799
#        123392
#        137292
#        146645
#        156132
#        166767
#        178424
#        188352
#        198404
#        207439
#        219271
#
# Disc length: 3055 seconds
#
# Revision: 0
# Processed by: cddbd v1.5.2PL0 Copyright (c) Steve Scherf et al.
# Submitted via: ExactAudioCopyFreeDBPlugin 1.0
#
DISCID=180bed15
DTITLE=The Stanley Brothers - For The Good People - Sacred Songs and The
DTITLE=Stanleys In Person
DYEAR=1900
DGENRE=Country
TTITLE0=When Jesus Beckons Me Home
TTITLE1=Four Books In The Bible
TTITLE2=I'll Not Be A Stranger
TTITLE3=Over In The Glory Land
TTITLE4=Lonely Tombs
TTITLE5=Jacob's Vision
TTITLE6=Jordan
TTITLE7=Mother Left Me Her Bible
TTITLE8=Purple Robe
TTITLE9=Pass Me Not
TTITLE10=From The Manger To The Cross
TTITLE11=My Main Trail Is Yet To Come
TTITLE12=Let Me Love You One More Time
TTITLE13=Little Bennie
TTITLE14=Wildwood Flower
TTITLE15=Old Love Letters
TTITLE16=Are You Tired Of Me Darling
TTITLE17=Finger Poppin' Time
TTITLE18=Let Me Rest
TTITLE19=Suwannee River Hoedown
TTITLE20=Daybreak In Dixie
EXTD=
EXTT0=
EXTT1=
EXTT2=
EXTT3=
EXTT4=
EXTT5=
EXTT6=
EXTT7=
EXTT8=
EXTT9=
EXTT10=
EXTT11=
EXTT12=
EXTT13=
EXTT14=
EXTT15=
EXTT16=
EXTT17=
EXTT18=
EXTT19=
EXTT20=
PLAYORDER=
